<svg version="1.2" xmlns="http://www.w3.org/2000/svg" viewBox="0 0 1280 720" width="1280" height="720">
	<title>Novo Projeto</title>
	<style>
		.s0 { fill: #ffffff } 
		.s1 { fill: #000000 } 
		.s2 { fill: #f0680d } 
	</style>
	<g id="Background">
		<path id="Path 0" class="s0" d="m0 0h1280v720h-1280v-360z"/>
		<path id="Path 1" class="s1" d="m316.5 181.5c4.4 0.2 11.1 1.3 15 2.5 3.9 1.2 9.9 3.9 13.5 5.9 3.6 2.1 9.2 6.8 12.5 10.3 3.3 3.6 7.4 9.1 9.2 12.4 1.7 3.2 3.9 8.6 4.9 11.9 1.2 4 1.8 9.3 1.8 16 0 6.7-0.6 12-1.8 16-1 3.3-3.2 8.7-4.9 11.9-1.8 3.3-5.9 8.8-9.2 12.4-3.3 3.5-8.9 8.2-12.5 10.3-3.6 2-9.9 4.8-14 6.1-5.9 1.8-9.7 2.3-17.5 2.2-8-0.1-11.6-0.6-18-2.8-4.4-1.4-9.7-3.6-11.8-4.9-2-1.2-3.5-2.4-3.2-2.7 0.2-0.3 2.8-0.1 5.7 0.4 3.6 0.7 7.5 0.6 12.3-0.3 4.3-0.7 9.7-2.7 13.9-4.9 4.3-2.3 8.8-5.8 11.9-9.2 2.7-3 6.2-8.2 7.8-11.5 1.6-3.3 3.6-9.2 4.4-13 0.8-3.8 1.5-8.8 1.5-11 0-2.2-0.7-7.2-1.5-11-0.8-3.8-2.8-9.7-4.4-13-1.6-3.3-5.1-8.5-7.8-11.5-3.2-3.5-7.5-6.9-11.9-9.2-3.8-2-9.6-4.2-12.9-4.8-3.3-0.7-7.7-1-9.8-0.8-2.4 0.3-3.7 0-3.4-0.6 0.2-0.6 2.6-1.9 5.3-2.9 2.7-1.1 7.6-2.5 10.9-3.3 3.6-0.8 9.1-1.2 14-0.9z"/>
		<path id="Path 2" class="s2" d="m467 184h5.5l-0.8 24.5 4.9 0.8c2.7 0.5 7.7 2.4 17.4 7.7l6-5.5c5.9-5.4 6.1-5.5 8.1-3.8 2.1 1.8 2.1 1.8-4 7.3-3.4 3-6.1 5.8-6.1 6.3 0 0.4 1.2 2.4 2.6 4.5 1.4 2 3.3 6.3 5.9 15.2h25.5v5h-13c-11.7 0-13 0.2-13 1.8 0 0.9-0.6 4-1.4 6.7-0.8 2.8-3.1 7.4-5 10.3-3.2 4.7-3.4 5.3-2 6.4 0.9 0.7 3.1 3 4.8 5.1 2.9 3.6 3 3.9 1.3 5.5-1.6 1.6-2 1.4-12.2-8.5l-5 2.8c-2.9 1.6-7.2 3-15.5 3.9l-0.5 25.5h-5l-0.3-13.3c-0.2-12.4-0.3-13.2-2.2-13.2-1.1 0-4.1-1.1-6.8-2.4-2.6-1.3-6.1-3.5-10.7-7.6l-2 2.1c-1.1 1.2-3.7 3.5-5.8 5.3-3.7 3-3.9 3-5.5 1.3-1.6-1.8-1.4-2.1 9.8-12.2l-2.5-5.5c-1.3-3-2.7-7.4-3.5-14h-24v-5h24l1.1-4.8c0.6-2.6 2.1-6.7 6-13.7l-5.6-5.5c-5.3-5.3-5.5-5.6-3.8-7.2 1.7-1.7 2.1-1.5 12.8 9l3.5-2.6c2-1.5 5.4-3.5 7.5-4.4 2.2-0.9 5.2-1.9 9.5-2.8v-12.5z"/>
	</g>
</svg>